<svg width="59" height="59" viewBox="0 0 59 59" fill="none" xmlns="http://www.w3.org/2000/svg">
<circle cx="29.14" cy="29.14" r="29.14" fill="#E94D5F"/>
<mask id="mask0_19_944" style="mask-type:alpha" maskUnits="userSpaceOnUse" x="1" y="1" width="56" height="56">
<path d="M37.8558 29.3692C37.8558 34.4414 33.8164 38.2968 29.1487 38.2968C24.4809 38.2968 20.4415 34.4414 20.4415 29.3692C20.4415 24.2969 24.4809 20.4415 29.1487 20.4415C33.8164 20.4415 37.8558 24.2969 37.8558 29.3692Z" fill="url(#paint0_linear_19_944)" stroke="black" stroke-width="37.4036"/>
</mask>
<g mask="url(#mask0_19_944)">
<path d="M-88.2034 26.9857L19.3783 -96.3354L164.687 31.7514L-26.7215 137.876L-88.2034 26.9857Z" fill="white"/>
<path opacity="0.5" d="M-6.96317 -54.4807L19.9279 -85.3129L157.351 35.8182L119.367 56.8782L-6.96317 -54.4807Z" fill="#E94D5F"/>
<path opacity="0.5" d="M-62.1055 8.74178L-35.2111 -22.0923L79.4189 78.9524L41.4899 100.057L-62.1055 8.74178Z" fill="#E94D5F"/>
<path opacity="0.5" d="M-26.7218 137.876L-76.4528 48.1801L5.21362 120.17L-26.7218 137.876Z" fill="#E94D5F"/>
<path opacity="0.5" d="M44.9395 98.144L124.48 6.96846L150.405 29.8212L134.1 48.5111L44.9395 98.144Z" fill="#E94D5F"/>
<path opacity="0.5" d="M-48.1231 99.2759L72.3962 -38.8729L98.3215 -16.0202L-30.3012 131.42L-48.1231 99.2759Z" fill="#E94D5F"/>
<path opacity="0.5" d="M-84.2482 34.1203L19.9547 -85.3277L45.88 -62.475L-66.4263 66.2643L-84.2482 34.1203Z" fill="#E94D5F"/>
</g>
<path d="M29.1486 54.6871C43.0198 54.6871 54.2645 43.3519 54.2645 29.3691C54.2645 15.3863 43.0198 4.05109 29.1486 4.05109C15.2775 4.05109 4.03271 15.3863 4.03271 29.3691C4.03271 43.3519 15.2775 54.6871 29.1486 54.6871Z" stroke="white" stroke-width="0.116779" stroke-miterlimit="10"/>
<path d="M29.1485 54.5139C42.9247 54.5139 54.0925 43.2563 54.0925 29.3693C54.0925 15.4823 42.9247 4.22461 29.1485 4.22461C15.3724 4.22461 4.20459 15.4823 4.20459 29.3693C4.20459 43.2563 15.3724 54.5139 29.1485 54.5139Z" stroke="#ECECEC" stroke-width="0.175169" stroke-miterlimit="10"/>
<path d="M45.2662 34.8311C45.2662 43.2232 38.0198 50.0329 29.0763 50.0329C20.14 50.0329 12.8936 43.2304 12.8936 34.8311C12.8936 33.7427 12.8936 28.0644 15.4284 23.4172C17.8486 18.9849 22.0877 16.0204 22.0877 16.0204C22.0877 16.0204 22.1449 17.3237 22.3096 18.6913C22.3884 19.3358 22.6319 20.059 22.6319 20.059C22.6533 18.8775 23.0901 16.0706 24.8731 12.6836C26.9353 8.774 30.6588 5.61621 30.6588 5.61621C30.6588 5.61621 30.4511 8.73103 30.759 11.3804C31.0598 14.0012 32.1768 16.4715 32.4919 16.7007C32.4919 16.7007 32.5492 15.7985 32.7783 15.0466C33.0003 14.3091 33.6734 13.457 33.6734 13.457C33.7378 13.1849 33.8166 15.555 34.6544 17.0229C36.5949 20.4385 41.5141 24.8995 42.6598 26.5607C44.3067 28.938 45.2662 31.7807 45.2662 34.8311Z" fill="#CA404F"/>
<path d="M30.1361 48.1786C21.1998 48.1786 13.9533 41.3761 13.9533 32.9768C13.9533 31.9314 13.9533 26.7042 16.1587 22.1931C15.901 22.5869 15.6504 22.9951 15.4212 23.4176C12.8936 28.0647 12.8936 33.743 12.8936 34.8314C12.8936 43.2235 20.14 50.0332 29.0763 50.0332C35.6497 50.0332 41.3136 46.3527 43.8485 41.0611C40.9842 45.3359 35.9146 48.1786 30.1361 48.1786Z" fill="#92384B"/>
<path d="M22.3243 18.7342C22.4031 19.3786 22.6537 20.1018 22.6537 20.1018C22.6752 18.9704 23.1764 16.0848 24.7732 12.8912C24.4724 13.3566 24.0858 14.0941 23.828 14.5882C23.112 15.9487 22.6179 17.2161 22.2742 18.3188C22.2885 18.4477 22.3028 18.5909 22.3243 18.7342Z" fill="#92384B"/>
<path d="M32.0126 30.1051C28.8476 33.9718 24.4081 36.2632 25.4965 37.3301C26.635 38.4399 33.3731 42.0775 38.5573 36.7572C41.2998 33.9503 41.0563 29.5323 39.5311 26.8471C39.5311 26.8471 40.4548 24.1905 40.4047 23.9972C40.24 23.3527 36.9963 19.9014 36.538 19.6937C36.538 19.6937 36.1943 22.2071 35.6 24.0258C35.1775 25.3147 33.8886 27.8209 32.0126 30.1051Z" fill="#ECD0CF"/>
<path d="M33.8455 31.6513C31.8119 34.1432 29.141 35.8331 29.9359 36.4059C30.7307 36.9788 33.602 38.4681 36.946 35.0454C39.445 32.4891 38.3924 29.1022 37.5976 28.5294C36.7956 27.9565 35.5497 29.5676 33.8455 31.6513Z" fill="#DAB2B5"/>
<path d="M34.6398 33.0912C33.8092 34.2369 33.4584 35.3897 33.845 35.669C34.2317 35.9482 35.2198 35.2536 36.0505 34.108C36.8811 32.9623 37.2319 31.8094 36.8453 31.523C36.4586 31.2509 35.4705 31.9455 34.6398 33.0912Z" fill="#C9949C"/>
<path d="M34.669 17.0307C34.5473 16.8159 34.4399 16.5796 34.3468 16.329C34.2107 16.5438 32.3633 19.4008 28.7258 21.9357C25.9332 23.8833 24.3722 25.3297 23.5917 29.5401C23.1835 31.7599 17.1973 28.4446 15.264 31.273C14.4405 32.4759 14.4978 33.6789 14.0396 34.4522C14.1828 37.9251 16.5815 41.269 16.5815 41.269C16.1734 40.6962 16.4526 37.1947 17.8203 34.8819C19.1235 32.6836 23.6561 32.5261 25.7756 30.1846C27.9811 27.75 27.9023 25.5947 29.4776 23.6542C31.6974 20.9189 34.5974 18.4915 36.2085 19.2505C35.607 18.4915 35.07 17.7396 34.669 17.0307Z" fill="#F4EAE6"/>
<path d="M45.2663 34.8315C45.116 35.8483 44.0132 38.0108 42.5811 38.3402C39.9604 38.9417 38.9006 37.3306 37.2322 39.0348C35.213 41.097 31.3033 42.7654 27.1216 41.4622C23.8994 40.4597 20.2332 43.6533 17.9275 42.9516C19.7319 45.2859 23.9065 47.0474 24.3791 47.1906C24.0282 46.7968 22.99 45.2 23.9924 44.6772C25.9186 43.6819 28.7828 45.6153 30.8451 45.0353C33.3011 44.3407 34.3537 42.3143 35.6498 41.5051C36.3014 41.097 39.7599 38.3259 43.8772 41.0039C44.7651 39.1207 45.2663 37.0298 45.2663 34.8315Z" fill="#F4EAE6"/>
<defs>
<linearGradient id="paint0_linear_19_944" x1="-2.16217" y1="62.758" x2="35.8153" y2="22.9044" gradientUnits="userSpaceOnUse">
<stop stop-color="#8484FB"/>
<stop offset="0.31" stop-color="#706FF5"/>
<stop offset="0.73" stop-color="#5B5AEF"/>
<stop offset="1" stop-color="#5352ED"/>
</linearGradient>
</defs>
</svg>
